<?xml version="1.0" encoding="UTF-8"?>
<svg id="Layer_2" data-name="Layer 2" xmlns="http://www.w3.org/2000/svg" viewBox="0 0 412.71 589.49">
  <defs>
    <style>
      .cls-1 {
        fill: #3c2415;
      }

      .cls-1, .cls-2, .cls-3, .cls-4 {
        stroke-width: 0px;
      }

      .cls-2 {
        fill: #e1b792;
      }

      .cls-3 {
        fill: #eec9a3;
      }

      .cls-4 {
        fill: #00b9c5;
      }
    </style>
  </defs>
  <g id="Capa_1" data-name="Capa 1">
    <g>
      <rect class="cls-2" x="164.73" y="357.66" width="82.8" height="91.07"/>
      <path class="cls-3" d="M326.26,200.37c2.88,88.3-54.05,199.66-117.89,199.66s-105.61-87.23-117.04-174.83c-15.51-118.97,40.38-151.11,104.24-151.11,111.2,0,126.8,7.32,130.69,126.29Z"/>
      <path class="cls-2" d="M311.95,448.74s-105.82-20-105.82-20c0,0-105.45,19.93-105.84,20-31.48,5.96-67.62,15.54-86.59,43.59-18.9,27.95-12.76,65.14-12.76,97.16h410.34c0-42.39,10.57-87.25-29.1-116.37-20.83-15.3-45.59-19.71-70.24-24.38Z"/>
      <path class="cls-2" d="M324.81,232.74s15.6-14.2,16.27,4.32c0,0-1.25,54.16-26.83,44.96l10.56-49.27Z"/>
      <path class="cls-2" d="M96.78,237.14s-15.59-14.21-16.29,4.3c0,0,1.27,54.17,26.86,44.96l-10.57-49.26Z"/>
      <path class="cls-4" d="M266.36,440.15c24.65,4.66,90.73,12.18,114.82,30.32,41.42,31.19,30.11,76.63,30.11,119.02H.95c0-32.03-6.14-69.22,12.76-97.16,18.96-28.05,55.45-41,122.5-50.32l69.92,104.54,60.23-106.39Z"/>
      <path class="cls-1" d="M335.01,162.99c-.01-.11-.01-.21-.02-.3-.12-4.35-.42-8.72-.89-13.11-.8-40.83,14.73-95.76,14.73-95.76-22.48-2.85-38.81,22.51-38.81,22.51-25.88-21.21-34.67-67.53-34.67-67.53-1.03,26.91-38.81,35.19-38.81,35.19C198.78,29.49,197.75,0,197.75,0c-4.14,31.57-32.63,52.27-32.63,52.27-29.64-6.38-45.85-34.67-45.85-34.67,7.59,48.64-7.42,52.79-7.42,52.79-28.98,4.65-31.36-8.99-31.36-8.99,2.29,12.05,0,73.78,0,73.78.01-.02.04-.05.04-.09-5.25,23.93-3.89,55.52,8.19,97.23,0,0,13.96-159.24,114.92-110.6,0,0,116.79-60.12,120.26,115.35,0,0,12.06-35.25,11.1-74.17,0,.03.02.11.02.11Z"/>
    </g>
  </g>
</svg>